PathFileType	4	(X/Y/Z)	/Users/niels/Desktop/University/Third Semester/Perception and Action/Exam/Gymnastics Motion Tracking/Code for Gym Tracking/Analyzed Data/Webcam_Backflip/id7_4_baseline_Sports2D/id7_4_baseline_Sports2D_px_person00.trc
DataRate	CameraRate	NumFrames	NumMarkers	Units	OrigDataRate	OrigDataStartFrame	OrigNumFrames
29.810126582278482	29.810126582278482	11	22	m	29.810126582278482	59	158
Frame#	Time	Hip			RHip			RKnee			RAnkle			RBigToe			RSmallToe			RHeel			LHip			LKnee			LAnkle			LBigToe			LSmallToe			LHeel			Neck			Head			Nose			RShoulder			RElbow			RWrist			LShoulder			LElbow			LWrist		
		X1	Y1	Z1	X2	Y2	Z2	X3	Y3	Z3	X4	Y4	Z4	X5	Y5	Z5	X6	Y6	Z6	X7	Y7	Z7	X8	Y8	Z8	X9	Y9	Z9	X10	Y10	Z10	X11	Y11	Z11	X12	Y12	Z12	X13	Y13	Z13	X14	Y14	Z14	X15	Y15	Z15	X16	Y16	Z16	X17	Y17	Z17	X18	Y18	Z18	X19	Y19	Z19	X20	Y20	Z20	X21	Y21	Z21	X22	Y22	Z22
59	1.9791932059447983	0.9295130297069624	-0.4573071386494924	0.0	0.9345240010512198	-0.45511121812751876	0.0	0.9415518453933105	-0.56986117372493	0.0	0.9345559093562464	-0.6812884304666088	0.0	0.9655530196470365	-0.716186411838188	0.0	0.9594000821800035	-0.7167634418004539	0.0	0.9280610962588137	-0.6969936036797616	0.0	0.9222390803084295	-0.45385595363052267	0.0	0.9314836962085605	-0.5716932259472545	0.0	0.9280637380846359	-0.6772019222897495	0.0	0.9593032496871251	-0.7099251407800731	0.0	0.9526197956122243	-0.7044637259118913	0.0	0.9215514520084782	-0.6889431700795251	0.0	0.9609771556030311	-0.31315020815659383	0.0	0.9924956921934346	-0.2454395445466877	0.0	0.9942384923500381	-0.28088241868786085	0.0	0.961093071280083	-0.32136841388276655	0.0	1.0145525408976703	-0.2844776737665103	0.0	1.055336131046825	-0.23683946911981613	0.0	0.9495307458338522	-0.32115311864934964	0.0	1.01324425673669	-0.28078342095167624	0.0	1.0542213160978142	-0.23157089184377383	0.0
60	2.0127388535031847	0.9306353657431053	-0.4656426024799692	0.0	0.9353846780624727	-0.4639741422664864	0.0	0.9408719958353092	-0.5785362127463249	0.0	0.9363275686932027	-0.6901778317268923	0.0	0.9692887366214676	-0.7233950104045054	0.0	0.9637498062434109	-0.7246319182580637	0.0	0.9303660424404749	-0.7068364514008562	0.0	0.9232527396240162	-0.4624566146166809	0.0	0.931702051509805	-0.5800579935919228	0.0	0.9300632257903947	-0.687096059295793	0.0	0.9628247709680491	-0.7183334548561323	0.0	0.9563928787478602	-0.7126228762748491	0.0	0.9237321276063709	-0.699470517002706	0.0	0.9601980878366092	-0.32098296977423874	0.0	0.9888916285150505	-0.2516826764451972	0.0	0.9915458920969544	-0.2867781849568595	0.0	0.9608318741287653	-0.32947812403681354	0.0	1.0128261573820214	-0.28794805104471705	0.0	1.0511820086214674	-0.2361767014208685	0.0	0.9481948156054536	-0.3292420747203796	0.0	1.0085062577048416	-0.2858318277714247	0.0	1.050058196657418	-0.23157953428719127	0.0
61	2.046284501061571	0.9318721968281146	-0.47757704587350397	0.0	0.9363634233268096	-0.47637246222583607	0.0	0.9402067871946912	-0.5913164721573582	0.0	0.9376451435588801	-0.7029273877709666	0.0	0.9714790269836604	-0.73381412480127	0.0	0.9666262464144669	-0.7357826152712453	0.0	0.9320323641745389	-0.7202815571404975	0.0	0.9245693455032946	-0.47477524081439576	0.0	0.9320749567132937	-0.5923119931808389	0.0	0.9316570278437102	-0.7004500621965221	0.0	0.9652957938699995	-0.7297353433352889	0.0	0.959123177763208	-0.7238415987565415	0.0	0.9249932921518901	-0.7134112604899145	0.0	0.9592659360689688	-0.33310088472767335	0.0	0.9856380557339874	-0.26197097386489465	0.0	0.9888920412169385	-0.2970740754468026	0.0	0.9605539339906656	-0.3412213046299875	0.0	1.0106856938367381	-0.29498566705595075	0.0	1.0458916364070707	-0.2394993481300183	0.0	0.9469010932745283	-0.3411461116085801	0.0	1.0020639153767714	-0.2954371886079203	0.0	1.042008514997372	-0.23738821652227887	0.0
62	2.0798301486199575	0.9334063927277844	-0.4933383738154837	0.0	0.9376952794665487	-0.4923859274073789	0.0	0.9396635810524224	-0.608032662651705	0.0	0.9380852503284772	-0.7191478787977832	0.0	0.9716443442517858	-0.7471957976410021	0.0	0.9672489366614729	-0.7499529070012797	0.0	0.9325750835381611	-0.7368553629262155	0.0	0.9265086549287518	-0.49084622309525805	0.0	0.9326047321307296	-0.6083468731730685	0.0	0.9324805133680559	-0.7168913452501547	0.0	0.9664655554255652	-0.7438969242203362	0.0	0.9604988852444825	-0.7380418045401983	0.0	0.9251660805887072	-0.7302279290242342	0.0	0.9581881471364931	-0.34914010358513137	0.0	0.9824239862343962	-0.2761578241095209	0.0	0.9862777676525081	-0.311536321163505	0.0	0.9600713177677409	-0.35631979115906565	0.0	1.0076501974006127	-0.3055953660234917	0.0	1.039015139219437	-0.24689235816527572	0.0	0.945784960565991	-0.35657811059466266	0.0	0.9945459947331853	-0.3091784960362694	0.0	1.030379545565532	-0.24931890606369794	0.0
63	2.1133757961783437	0.9352993539217628	-0.5128251260313339	0.0	0.9393990594302518	-0.5118928519789305	0.0	0.9393670278978895	-0.6280825348621792	0.0	0.9374529969269263	-0.7381383666583465	0.0	0.9699084580374698	-0.7631710186810522	0.0	0.9654257870763175	-0.766749101274064	0.0	0.9317931897564034	-0.755789833024711	0.0	0.929206546106402	-0.5104312045246541	0.0	0.9333592992904297	-0.6276698613712659	0.0	0.9324010307316937	-0.7358245705478972	0.0	0.9664788515630812	-0.7604167860432004	0.0	0.9606322140405211	-0.7549750457784447	0.0	0.9243392143297575	-0.7491979154248121	0.0	0.9570347672697647	-0.36850211029961333	0.0	0.9789556600037401	-0.29400137490256545	0.0	0.9837189555821805	-0.3295881006138553	0.0	0.9592542362444935	-0.37438726274410883	0.0	1.0035875026424466	-0.31960826137615167	0.0	1.0305043944130405	-0.2582433923866005	0.0	0.9449381728934066	-0.37503357880180643	0.0	0.9863760789795789	-0.3266180980434873	0.0	1.0151372273681751	-0.2675683382986576	0.0
64	2.1469214437367303	0.9374573283088818	-0.5353180216049354	0.0	0.9412727803976636	-0.5342995955266427	0.0	0.9394222306511133	-0.6505095228341568	0.0	0.9359096659947297	-0.7589262310612486	0.0	0.9668485241172736	-0.7811791517384901	0.0	0.9616164594414486	-0.7855514806511228	0.0	0.9299285477298632	-0.7760720336573232	0.0	0.932440348209369	-0.5327655281243787	0.0	0.9343806678844483	-0.6494022720698532	0.0	0.9315996344460051	-0.7564373689148534	0.0	0.9657026272914679	-0.7787005773459446	0.0	0.9598145340855474	-0.7741616366360351	0.0	0.9228493016130745	-0.7695253795577957	0.0	0.955858652068828	-0.39027583742179683	0.0	0.9751595142637021	-0.3148767224096399	0.0	0.9812413557326178	-0.35026535134160397	0.0	0.9581031210595001	-0.39480601862186676	0.0	0.9987657778879198	-0.3364649352696387	0.0	1.0206731678896628	-0.27301451455568737	0.0	0.9443449274220538	-0.39574904738208644	0.0	0.9777292527883081	-0.3469650460357186	0.0	0.9965117370800574	-0.29186182263953037	0.0
65	2.180467091295117	0.9397001324909052	-0.5593619018656167	0.0	0.9430305431563487	-0.5583414256564155	0.0	0.9398390234379781	-0.6740019537236862	0.0	0.9338609854905799	-0.7801946314241442	0.0	0.9631419370236222	-0.8001610447826291	0.0	0.9567302686306336	-0.8052217700276713	0.0	0.9275028124470115	-0.7964019227134129	0.0	0.9357342491854416	-0.55644566781725	0.0	0.9356395869315809	-0.6722499413661521	0.0	0.9304416233576859	-0.7775562564728402	0.0	0.9644453041478847	-0.7977085341382418	0.0	0.9582592604196865	-0.7945495328266459	0.0	0.9211334552241086	-0.7901793543667229	0.0	0.9546650030178385	-0.41312503770374454	0.0	0.971182532595121	-0.33760049674008225	0.0	0.9788467165092579	-0.3722840649702357	0.0	0.9567289476501496	-0.4165868819582704	0.0	0.9936729236715537	-0.3551331631750981	0.0	1.0101390338564162	-0.2902064755830909	0.0	0.9438994949253465	-0.41770145197797776	0.0	0.9688377994135736	-0.36875769537801123	0.0	0.9759071889038788	-0.3208704940714381	0.0
66	2.214012738853503	0.9418448026994739	-0.5829123612111013	0.0	0.9444870534905992	-0.5820984584960809	0.0	0.9404934349461221	-0.6967995381509953	0.0	0.9317369528915912	-0.8002641488360469	0.0	0.9594428997697304	-0.8184766869542477	0.0	0.9518597946951639	-0.8240575769496182	0.0	0.9250172701977577	-0.8152308513211792	0.0	0.9386710156449611	-0.5795795333500844	0.0	0.9370492481055579	-0.6944672764183921	0.0	0.9292823510980855	-0.7975830138869852	0.0	0.9630022579116148	-0.8158898396685936	0.0	0.9562971783421449	-0.8143564309941352	0.0	0.9195255479475622	-0.8097084325109384	0.0	0.9534527296036351	-0.4353337897792984	0.0	0.9672891900453349	-0.3604290020989361	0.0	0.9765543203596163	-0.39412771197994884	0.0	0.9552280532740478	-0.4382980369940941	0.0	0.9888148449578197	-0.3741632401625663	0.0	0.9998146626178441	-0.30840860560755956	0.0	0.9434907634326889	-0.4395739323519094	0.0	0.9603569673391273	-0.38984834346263636	0.0	0.9565377984458878	-0.35193333678689376	0.0
67	2.2475583864118898	0.9437328817627832	-0.6036667652833483	0.0	0.945620694882468	-0.6032542768303127	0.0	0.9411720845381879	-0.7167549075752554	0.0	0.9298639025740942	-0.8173307262523233	0.0	0.9564073581872393	-0.8342550474821339	0.0	0.9480024268867243	-0.8401629133554931	0.0	0.9228163540832491	-0.8310037424088278	0.0	0.9410662325938176	-0.6000712372231424	0.0	0.938477106454489	-0.7139511224526836	0.0	0.9283686568242268	-0.8147184719544059	0.0	0.9618313453486153	-0.8314646385654221	0.0	0.9545992156810923	-0.831411702694606	0.0	0.9181974001431938	-0.826412419310582	0.0	0.9522568953426074	-0.45502004164050175	0.0	0.9637915763282492	-0.3811835661277874	0.0	0.97441622074807	-0.41403358697249615	0.0	0.9536325024171847	-0.4581310830815951	0.0	0.984587099737311	-0.3918564304214664	0.0	0.9907845643133123	-0.32580348164111883	0.0	0.9430578876555417	-0.4596957268142263	0.0	0.9530713011348151	-0.40797717117873106	0.0	0.9422587493539062	-0.3820058007449767	0.0
68	2.281104033970276	0.9452300436099499	-0.6194313749429284	0.0	0.9464800246693829	-0.6194947650668731	0.0	0.9416562242068752	-0.7316811777373308	0.0	0.9284305838421473	-0.8298079895826818	0.0	0.9545546406936802	-0.8457875756856188	0.0	0.9457587889186602	-0.8518293690664405	0.0	0.921109465137741	-0.8424105995476404	0.0	0.9429115654961097	-0.6158731832771727	0.0	0.9397492155766193	-0.7285713848342623	0.0	0.9278229591553664	-0.8272861386801573	0.0	0.9613986156166913	-0.842741748621344	0.0	0.9538783176982185	-0.8436917358062407	0.0	0.9172366551907738	-0.8386844146381506	0.0	0.9511555863911618	-0.4703646903493336	0.0	0.9609324842814068	-0.3975724317731762	0.0	0.972482907128353	-0.4300242719305265	0.0	0.9520005668943664	-0.4741481841158333	0.0	0.9812419966521287	-0.4064689140658	0.0	0.9840232079108047	-0.3403568119385973	0.0	0.9426379394411439	-0.4760974081990629	0.0	0.947723394671931	-0.4214934441239632	0.0	0.9352692504098175	-0.4076306021300345	0.0
69	2.3146496815286626	0.9462392728113717	-0.6285276527191067	0.0	0.9470936524678504	-0.6290012809232335	0.0	0.9418039853237936	-0.7398867645192339	0.0	0.9274797486394091	-0.8366013355393849	0.0	0.9540772992224413	-0.8518625239800478	0.0	0.9452260083469745	-0.8578579156539183	0.0	0.9199821016195026	-0.8485503010655734	0.0	0.9442621090895105	-0.6253228013931298	0.0	0.9406772947481511	-0.736695977655863	0.0	0.9276272412902091	-0.8340374873053663	0.0	0.961804138278393	-0.8484818936169092	0.0	0.9543441153993062	-0.8498270103610273	0.0	0.9166687290671007	-0.8452941960713636	0.0	0.9502553007797254	-0.4798384055517589	0.0	0.9586988303070145	-0.40771079347871775	0.0	0.9708330310350684	-0.4402379311970553	0.0	0.9504513087442835	-0.48463811642532567	0.0	0.9788992043003386	-0.4164712111144796	0.0	0.9801107211890142	-0.3503362514759542	0.0	0.9424391923954305	-0.4868464033732982	0.0	0.9456818887074904	-0.4295107433261893	0.0	0.93587495096565	-0.4231987400144425	0.0
